# xmcd
#
# Track frame offsets:
#	150
#	7842
#	17665
#	32387
#	42397
#	53860
#	72831
#	87241
#	99412
#	111145
#	127590
#
# Disc length: 1972 seconds
#
# Revision: 1
# Processed by: cddbd v1.5.2PL0 Copyright (c) Steve Scherf et al.
# Submitted via: audiograbber 1.83.01
#
DISCID=7707b20b
DTITLE=Brenda Lee - Gospel Duets With Treasured Friends
DYEAR=2007
DGENRE=Gospel
TTITLE0=This Old House  (with Dolly Parton)
TTITLE1=Have A Little Talk With Jesus   (with George Jones)
TTITLE2=In The Garden   (with Allison Krauss)
TTITLE3=I Saw The Light  (with Vince Gill)
TTITLE4=Jesus Loves Me  (with Emmylou Harris)
TTITLE5=Precious Memories  (with Pam Tillis)
TTITLE6=Swing Low, Sweet Chariot   (with Kix Brooks)
TTITLE7=This Little Light Of Mine  (with Charlie Daniels)
TTITLE8=Unclouded Day  (with Martina McBride)
TTITLE9=Where Could I go But To The Lord  (with Ronnie Dunn)
TTITLE10=Oh! Happy Day  (with Huey Lewis)
EXTD=
EXTT0=
EXTT1=
EXTT2=
EXTT3=
EXTT4=
EXTT5=
EXTT6=
EXTT7=
EXTT8=
EXTT9=
EXTT10=
PLAYORDER=
